<svg xmlns="http://www.w3.org/2000/svg" width="1200" height="630" viewBox="0 0 1200 630">
  <rect width="1200" height="630" fill="#FFF9F1"/>
  <circle cx="990" cy="120" r="150" fill="#DCE9DD"/>
  <circle cx="130" cy="520" r="190" fill="#F7EFE4"/>
  <rect x="90" y="98" width="1020" height="434" rx="36" fill="#6D4C41"/>
  <text x="150" y="230" fill="#FFF9F1" font-family="Arial, sans-serif" font-size="82" font-weight="700">Kindle</text>
  <text x="150" y="318" fill="#DCE9DD" font-family="Arial, sans-serif" font-size="40">You don't have to ask alone.</text>
  <text x="150" y="402" fill="#FFF9F1" font-family="Arial, sans-serif" font-size="32">A supported storytelling system for ethical living donor awareness.</text>
  <path d="M900 340c0-82 48-148 108-148s108 66 108 148c0 62-45 102-108 102S900 402 900 340Z" fill="#FFF9F1" opacity="0.95"/>
  <path d="M1008 202v226M947 340c39-8 55-31 61-70 8 39 27 62 62 70" stroke="#B45F4D" stroke-width="20" stroke-linecap="round" fill="none"/>
</svg>
